<svg xmlns="http://www.w3.org/2000/svg" xmlns:xlink="http://www.w3.org/1999/xlink" width="500" zoomAndPan="magnify" viewBox="0 0 375 374.999991" height="500" preserveAspectRatio="xMidYMid meet" version="1.0"><defs><clipPath id="627dbf472c"><path d="M 116 293 L 121 293 L 121 294.320312 L 116 294.320312 Z M 116 293 " clip-rule="nonzero"/></clipPath><clipPath id="872c0bdd03"><path d="M 16.714844 79.070312 L 360.964844 79.070312 L 360.964844 294.320312 L 16.714844 294.320312 Z M 16.714844 79.070312 " clip-rule="nonzero"/></clipPath></defs><path fill="#515857" d="M 142.347656 113.296875 C 142.507812 113.296875 142.585938 113.214844 142.667969 113.214844 C 142.585938 113.214844 142.585938 113.214844 142.507812 113.214844 Z M 142.347656 113.296875 " fill-opacity="1" fill-rule="nonzero"/><path fill="#515857" d="M 141.546875 113.535156 L 139.304688 114.179688 C 139.226562 114.339844 140.425781 113.855469 141.546875 113.535156 Z M 141.546875 113.535156 " fill-opacity="1" fill-rule="nonzero"/><path fill="#515857" d="M 157.710938 108.082031 C 157.628906 108.082031 157.550781 108 157.390625 108 C 157.472656 108.082031 157.550781 108.082031 157.710938 108.082031 Z M 157.710938 108.082031 " fill-opacity="1" fill-rule="nonzero"/><path fill="#515857" d="M 65.046875 152.363281 C 65.527344 151.960938 65.765625 151.800781 65.765625 151.71875 C 65.285156 152.121094 64.886719 152.441406 65.046875 152.363281 Z M 65.046875 152.363281 " fill-opacity="1" fill-rule="nonzero"/><path fill="#515857" d="M 53.921875 160.625 C 53.683594 160.785156 53.363281 161.027344 53.203125 161.1875 C 53.445312 161.027344 53.683594 160.785156 53.921875 160.625 Z M 53.921875 160.625 " fill-opacity="1" fill-rule="nonzero"/><path fill="#515857" d="M 177.957031 102.949219 L 178.597656 102.789062 C 178.757812 102.707031 178.996094 102.625 179.15625 102.464844 Z M 177.957031 102.949219 " fill-opacity="1" fill-rule="nonzero"/><path fill="#515857" d="M 142.347656 113.296875 C 142.105469 113.375 141.785156 113.457031 141.464844 113.535156 C 141.785156 113.457031 142.105469 113.375 142.347656 113.296875 Z M 142.347656 113.296875 " fill-opacity="1" fill-rule="nonzero"/><path fill="#515857" d="M 212.683594 98.054688 C 212.84375 97.972656 212.925781 97.894531 212.925781 97.894531 Z M 212.683594 98.054688 " fill-opacity="1" fill-rule="nonzero"/><path fill="#515857" d="M 258.855469 92.519531 C 258.695312 92.597656 258.539062 92.679688 258.136719 92.679688 C 258.457031 92.679688 258.695312 92.597656 258.9375 92.597656 C 259.015625 92.597656 259.015625 92.597656 258.855469 92.519531 Z M 258.855469 92.519531 " fill-opacity="1" fill-rule="nonzero"/><path fill="#515857" d="M 48.882812 277.261719 C 48.800781 277.183594 48.640625 277.023438 48.5625 276.941406 C 48.324219 276.78125 48.082031 276.621094 47.84375 276.542969 Z M 48.882812 277.261719 " fill-opacity="1" fill-rule="nonzero"/><path fill="#515857" d="M 35.199219 178.996094 C 35.4375 178.753906 35.597656 178.515625 35.757812 178.273438 C 35.519531 178.59375 35.359375 178.835938 35.199219 178.996094 Z M 35.199219 178.996094 " fill-opacity="1" fill-rule="nonzero"/><path fill="#515857" d="M 258.855469 92.761719 C 259.335938 92.679688 259.738281 92.597656 260.058594 92.519531 C 259.738281 92.597656 259.335938 92.597656 258.855469 92.761719 C 258.9375 92.679688 258.9375 92.679688 258.855469 92.761719 Z M 258.855469 92.761719 " fill-opacity="1" fill-rule="nonzero"/><path fill="#515857" d="M 252.296875 91.957031 C 252.535156 91.957031 252.855469 91.878906 253.097656 91.878906 Z M 252.296875 91.957031 " fill-opacity="1" fill-rule="nonzero"/><path fill="#515857" d="M 206.445312 97.253906 C 205.804688 97.332031 205.644531 97.734375 205.402344 97.894531 C 205.722656 97.734375 206.203125 97.574219 206.765625 97.414062 C 206.765625 97.332031 206.683594 97.253906 206.445312 97.253906 Z M 206.445312 97.253906 " fill-opacity="1" fill-rule="nonzero"/><path fill="#515857" d="M 258.136719 92.761719 C 257.738281 92.761719 257.335938 92.839844 256.9375 92.839844 C 257.496094 92.839844 257.816406 92.761719 258.136719 92.761719 Z M 258.136719 92.761719 " fill-opacity="1" fill-rule="nonzero"/><path fill="#515857" d="M 182.195312 289.695312 C 179.398438 289.9375 186.597656 288.492188 182.4375 288.976562 C 182.835938 288.976562 178.757812 290.097656 182.195312 289.695312 Z M 182.195312 289.695312 " fill-opacity="1" fill-rule="nonzero"/><path fill="#515857" d="M 323.433594 228.328125 L 325.515625 226.40625 L 324.554688 227.285156 Z M 323.433594 228.328125 " fill-opacity="1" fill-rule="nonzero"/><path fill="#515857" d="M 18.554688 239.238281 C 18.554688 239.078125 18.554688 238.839844 18.472656 238.597656 C 18.472656 238.597656 18.472656 238.757812 18.554688 239.238281 Z M 18.554688 239.238281 " fill-opacity="1" fill-rule="nonzero"/><path fill="#515857" d="M 30.476562 260.980469 C 30.636719 261.21875 30.796875 261.460938 31.199219 261.859375 C 31.199219 261.78125 31.117188 261.699219 31.039062 261.621094 C 30.878906 261.460938 30.71875 261.300781 30.476562 260.980469 Z M 30.476562 260.980469 " fill-opacity="1" fill-rule="nonzero"/><g clip-path="url(#627dbf472c)"><path fill="#515857" d="M 116.179688 293.867188 C 116.980469 294.027344 119.0625 294.191406 120.339844 294.027344 C 118.742188 294.027344 117.058594 293.867188 116.179688 293.867188 Z M 116.179688 293.867188 " fill-opacity="1" fill-rule="nonzero"/></g><path fill="#515857" d="M 30.476562 260.980469 C 30.398438 260.820312 30.316406 260.738281 30.15625 260.578125 C 30.238281 260.65625 30.398438 260.820312 30.476562 260.980469 Z M 30.476562 260.980469 " fill-opacity="1" fill-rule="nonzero"/><path fill="#515857" d="M 25.675781 193.914062 L 25.117188 194.878906 C 25.277344 194.558594 25.515625 194.238281 25.675781 193.914062 Z M 25.675781 193.914062 " fill-opacity="1" fill-rule="nonzero"/><path fill="#515857" d="M 112.660156 124.605469 L 112.738281 124.207031 C 111.058594 125.089844 112.820312 124.367188 112.660156 124.605469 Z M 112.660156 124.605469 " fill-opacity="1" fill-rule="nonzero"/><path fill="#515857" d="M 25.117188 195.199219 C 25.035156 195.441406 24.957031 195.679688 24.796875 195.921875 C 25.035156 195.441406 25.355469 194.796875 25.117188 195.199219 Z M 25.117188 195.199219 " fill-opacity="1" fill-rule="nonzero"/><path fill="#515857" d="M 34 180.277344 C 34 180.277344 34.078125 180.199219 34.078125 180.199219 C 34.480469 179.636719 34.238281 179.957031 34 180.277344 Z M 34 180.277344 " fill-opacity="1" fill-rule="nonzero"/><path fill="#515857" d="M 85.453125 138.082031 L 82.8125 139.847656 L 84.730469 138.566406 Z M 85.453125 138.082031 " fill-opacity="1" fill-rule="nonzero"/><path fill="#515857" d="M 24.714844 196.242188 C 24.796875 196.160156 24.796875 196 24.875 195.921875 C 24.796875 196 24.714844 196.160156 24.714844 196.242188 Z M 24.714844 196.242188 " fill-opacity="1" fill-rule="nonzero"/><path fill="#515857" d="M 199.320312 100.140625 L 201.800781 99.820312 C 200.761719 99.898438 199.960938 99.980469 199.320312 100.140625 Z M 199.320312 100.140625 " fill-opacity="1" fill-rule="nonzero"/><path fill="#515857" d="M 45.042969 274.9375 L 44.800781 274.296875 C 43.679688 273.652344 43.199219 273.8125 45.042969 274.9375 Z M 45.042969 274.9375 " fill-opacity="1" fill-rule="nonzero"/><path fill="#515857" d="M 32.476562 259.375 C 32.558594 259.453125 32.636719 259.613281 32.71875 259.695312 Z M 32.476562 259.375 " fill-opacity="1" fill-rule="nonzero"/><g clip-path="url(#872c0bdd03)"><path fill="#515857" d="M 360.484375 160.382812 C 360.5625 160.222656 360.5625 159.824219 360.5625 159.339844 C 360.5625 158.621094 360.402344 157.738281 360.242188 156.695312 C 359.921875 154.609375 359.363281 152.121094 358.804688 150.4375 L 359.203125 150.917969 C 358.722656 149.472656 358.324219 148.832031 358.003906 147.949219 C 357.683594 147.066406 357.28125 146.105469 356.5625 144.179688 C 356.402344 143.699219 356.402344 143.457031 356.484375 143.539062 C 356.5625 143.539062 356.644531 143.699219 356.722656 144.019531 C 356.324219 142.816406 356.082031 142.335938 355.761719 141.773438 C 355.441406 141.132812 355.042969 140.410156 354.320312 138.566406 L 355.121094 139.847656 C 354.480469 138.324219 354.082031 137.601562 353.761719 137.121094 C 353.441406 136.640625 353.203125 136.320312 352.640625 135.597656 C 351.523438 133.832031 349.519531 130.140625 349.359375 129.582031 C 348.960938 129.339844 347.761719 127.976562 346.640625 126.371094 C 346.558594 126.128906 347.039062 126.613281 347.28125 126.851562 C 346.878906 126.292969 346.480469 125.730469 346.160156 125.25 C 345.761719 124.765625 345.441406 124.285156 345.039062 123.882812 C 344.320312 123.003906 343.679688 122.359375 343.039062 121.636719 C 342.398438 120.996094 341.757812 120.355469 341.199219 119.714844 C 340.558594 119.070312 340 118.429688 339.359375 117.707031 C 339.359375 117.546875 339.199219 117.386719 339.039062 117.144531 C 341.917969 119.953125 344.078125 122.519531 344.238281 122.761719 C 344.480469 122.519531 342.160156 119.875 344.320312 121.71875 C 343.757812 121.238281 343.199219 120.597656 342.480469 119.953125 C 341.757812 119.3125 341.039062 118.671875 340.320312 117.949219 C 339.519531 117.308594 338.796875 116.585938 337.996094 115.941406 C 337.277344 115.300781 336.558594 114.660156 335.917969 114.019531 C 335.835938 113.855469 335.675781 113.777344 335.675781 113.617188 L 335.996094 113.855469 C 335.4375 113.296875 334.878906 112.894531 334.316406 112.492188 C 333.515625 111.691406 332.957031 111.289062 332.15625 110.570312 C 331.996094 110.085938 329.035156 107.921875 327.515625 106.878906 C 327.433594 107.199219 325.59375 105.835938 327.113281 107.28125 C 327.113281 107.199219 327.59375 107.601562 328.394531 108.160156 C 328.636719 108.320312 328.875 108.484375 329.035156 108.5625 C 329.035156 108.5625 328.957031 108.5625 328.957031 108.484375 C 329.4375 108.804688 329.996094 109.203125 330.554688 109.6875 C 331.117188 110.167969 331.757812 110.648438 332.476562 111.210938 C 331.835938 110.808594 331.277344 110.40625 330.636719 110.007812 C 329.996094 109.527344 329.277344 109.042969 328.554688 108.402344 C 327.675781 108 326.714844 107.601562 326.234375 107.359375 C 325.355469 106.476562 323.996094 105.355469 322.792969 104.3125 C 321.59375 103.347656 320.472656 102.546875 320.3125 102.226562 C 317.914062 100.863281 315.191406 99.335938 312.472656 98.054688 C 311.109375 97.414062 309.832031 96.851562 308.710938 96.371094 C 307.511719 95.886719 306.46875 95.566406 305.667969 95.328125 C 304.230469 94.765625 304.148438 94.445312 303.667969 94.125 C 304.46875 94.445312 305.429688 94.84375 305.910156 95.007812 C 305.1875 94.765625 304.308594 94.363281 303.347656 93.964844 C 302.390625 93.5625 301.429688 93.160156 300.46875 92.839844 C 298.628906 92.117188 297.027344 91.636719 296.546875 91.71875 C 292.945312 90.191406 298.707031 92.117188 293.667969 90.351562 C 293.90625 90.351562 294.148438 90.433594 294.386719 90.433594 C 291.984375 89.472656 289.746094 88.667969 287.503906 88.027344 C 285.34375 87.386719 283.183594 86.984375 281.023438 86.503906 C 280.464844 86.34375 279.984375 86.261719 279.421875 86.101562 C 278.863281 86.019531 278.300781 85.859375 277.742188 85.78125 C 276.621094 85.539062 275.5 85.300781 274.300781 85.058594 C 271.980469 84.496094 269.421875 83.9375 266.621094 83.132812 C 267.417969 83.375 267.820312 83.453125 267.898438 83.535156 C 264.699219 82.730469 261.417969 82.171875 258.058594 81.609375 C 257.257812 81.449219 256.375 81.367188 255.578125 81.289062 L 253.015625 80.96875 C 251.335938 80.808594 249.65625 80.484375 247.972656 80.40625 C 246.292969 80.246094 244.613281 80.085938 242.933594 80.003906 C 242.453125 80.003906 241.574219 80.003906 240.773438 79.925781 C 239.972656 79.84375 239.09375 79.84375 238.292969 79.765625 C 234.929688 79.523438 231.648438 79.445312 228.371094 79.203125 C 227.410156 79.121094 226.6875 79.121094 226.128906 79.203125 C 225.570312 79.203125 225.089844 79.28125 224.609375 79.28125 C 223.726562 79.363281 223.089844 79.523438 221.96875 79.605469 L 221.167969 79.28125 C 220.527344 79.363281 219.886719 79.445312 219.246094 79.523438 L 217.328125 79.84375 C 215.964844 80.003906 214.6875 80.085938 213.40625 80.085938 C 212.765625 80.085938 212.125 80.085938 211.566406 80.085938 C 210.925781 80.085938 210.285156 80.085938 209.644531 80.164062 C 207.082031 80.246094 204.363281 80.324219 200.921875 81.046875 L 201.800781 81.128906 C 200.601562 81.289062 198.601562 81.527344 197 81.769531 C 195.402344 82.011719 194.199219 82.25 194.359375 82.089844 C 194.121094 82.171875 193.558594 82.492188 192.601562 82.492188 L 192.601562 82.410156 L 189.558594 83.132812 C 188.597656 83.375 187.558594 83.613281 186.597656 83.9375 C 184.277344 84.335938 184.4375 84.175781 184.277344 84.015625 C 184.199219 83.9375 184.117188 83.855469 183.558594 83.9375 C 183.316406 83.9375 182.917969 84.015625 182.4375 84.097656 C 182.199219 84.175781 181.878906 84.175781 181.558594 84.257812 C 181.238281 84.335938 180.835938 84.417969 180.4375 84.496094 C 177.957031 85.21875 173.476562 86.824219 174.433594 86.664062 C 175.476562 86.421875 176.996094 86.101562 177.15625 86.261719 L 174.914062 86.902344 C 174.675781 87.546875 173.074219 88.507812 178.675781 87.464844 C 179.957031 87.0625 181.15625 86.582031 182.4375 86.183594 L 183.71875 86.183594 L 182.117188 86.503906 L 180.515625 86.902344 C 182.4375 86.664062 183.558594 86.261719 184.839844 85.78125 C 185.15625 85.859375 185.71875 85.859375 186.519531 85.699219 C 187.796875 85.300781 189 84.816406 190.28125 84.417969 C 190.757812 84.578125 188.597656 85.140625 191.238281 84.816406 C 193 84.257812 189.398438 84.65625 192.359375 84.015625 C 194.28125 83.9375 193.800781 84.257812 195.960938 83.613281 C 196.199219 83.695312 195.960938 83.773438 195.402344 83.9375 C 197.320312 83.453125 200.203125 83.214844 201.164062 82.8125 C 202.203125 82.8125 203.804688 82.570312 205.242188 82.410156 C 206.683594 82.25 207.804688 82.171875 207.722656 82.492188 C 208.042969 82.410156 208.925781 82.25 209.882812 82.011719 C 210.925781 81.851562 212.046875 81.609375 213.003906 81.609375 C 209.722656 82.410156 219.886719 81.207031 219.007812 81.929688 C 220.207031 81.609375 222.449219 81.527344 224.929688 81.449219 C 225.570312 81.449219 226.207031 81.449219 226.847656 81.367188 C 227.488281 81.367188 228.128906 81.367188 228.769531 81.367188 C 230.050781 81.367188 231.25 81.367188 232.371094 81.289062 C 232.128906 81.289062 231.648438 81.367188 231.25 81.367188 C 233.730469 81.449219 234.449219 81.609375 235.972656 81.851562 C 236.292969 81.449219 240.132812 81.527344 242.214844 81.367188 C 243.734375 81.691406 243.253906 81.851562 242.53125 81.851562 C 241.8125 81.929688 240.851562 82.011719 241.253906 82.25 C 241.09375 81.851562 246.535156 82.332031 245.492188 81.929688 C 247.8125 82.410156 247.496094 82.25 248.613281 82.734375 C 249.09375 82.171875 250.773438 82.894531 252.695312 82.8125 C 255.976562 83.535156 253.496094 83.453125 257.175781 83.773438 C 257.976562 84.015625 257.578125 84.015625 257.015625 84.015625 C 256.375 84.015625 255.578125 83.9375 255.578125 83.9375 C 257.417969 84.175781 257.898438 84.175781 257.976562 84.015625 C 258.058594 83.855469 257.816406 83.695312 258.21875 83.613281 C 262.617188 84.257812 260.21875 84.257812 261.65625 84.738281 C 264.457031 85.058594 266.621094 85.140625 268.621094 85.539062 C 268.78125 85.621094 269.179688 85.78125 268.699219 85.699219 C 269.421875 85.78125 270.378906 85.941406 271.339844 86.101562 C 272.300781 86.261719 273.421875 86.582031 274.542969 86.824219 C 275.660156 87.0625 276.78125 87.386719 277.820312 87.546875 C 278.382812 87.625 278.863281 87.785156 279.34375 87.867188 C 279.824219 87.945312 280.304688 88.027344 280.703125 88.105469 C 280.941406 88.1875 281.023438 88.265625 281.101562 88.347656 C 280.621094 87.945312 280.621094 87.785156 280.78125 87.625 C 282.382812 88.105469 283.902344 88.265625 284.382812 88.667969 C 283.421875 88.347656 283.265625 88.429688 282.785156 88.429688 L 284.542969 88.828125 C 285.984375 89.632812 282.222656 88.265625 282.144531 88.589844 C 283.824219 88.988281 285.664062 89.390625 287.34375 89.871094 C 289.023438 90.351562 290.625 90.835938 291.90625 91.316406 C 292.304688 91.878906 285.984375 89.472656 289.265625 90.914062 C 287.984375 90.433594 286.703125 89.953125 285.425781 89.550781 C 288.226562 90.996094 283.023438 88.828125 285.585938 90.273438 C 285.824219 90.351562 285.984375 90.433594 286.222656 90.433594 L 285.425781 90.835938 L 286.945312 90.675781 C 287.585938 90.914062 288.226562 91.074219 288.707031 91.234375 C 289.585938 91.476562 290.304688 91.71875 291.027344 91.957031 C 292.464844 92.359375 293.90625 92.761719 296.386719 93.800781 C 297.585938 94.042969 296.148438 93.320312 297.347656 93.5625 C 299.1875 94.125 300.386719 94.683594 301.269531 95.085938 C 302.148438 95.566406 302.789062 95.886719 303.269531 96.289062 C 304.308594 97.011719 305.109375 97.574219 307.75 98.535156 C 308.46875 98.695312 308.949219 98.777344 309.75 99.015625 C 310.152344 99.175781 310.632812 99.335938 311.191406 99.578125 C 311.75 99.820312 312.472656 100.21875 313.273438 100.78125 L 311.832031 100.542969 C 314.070312 101.746094 314.792969 101.984375 315.511719 102.304688 C 315.914062 102.464844 316.230469 102.546875 316.792969 102.867188 C 317.351562 103.1875 318.074219 103.667969 319.191406 104.390625 C 318.3125 104.070312 315.59375 102.464844 316.230469 102.867188 C 319.03125 104.953125 318.472656 103.910156 320.792969 105.355469 L 321.035156 105.996094 C 322.234375 106.71875 323.355469 107.519531 324.554688 108.242188 C 325.753906 109.042969 326.957031 109.847656 328.15625 110.730469 C 330.554688 112.414062 332.957031 114.339844 335.277344 116.34375 C 334.957031 116.183594 334.078125 115.621094 335.039062 116.664062 C 337.917969 119.152344 340.796875 122.121094 343.359375 125.25 C 345.921875 128.378906 348.082031 131.746094 349.839844 134.953125 C 350.402344 135.675781 350.960938 136.480469 351.523438 137.199219 C 351.839844 137.761719 351.921875 138.324219 351.523438 137.761719 C 352.722656 140.328125 351.761719 137.761719 352.5625 138.964844 C 353.28125 140.410156 353.28125 140.972656 352.800781 140.089844 C 354.003906 142.253906 355.441406 145.625 356.484375 149.074219 C 357.523438 152.601562 358.003906 156.214844 358.082031 158.859375 L 357.84375 157.816406 C 358.082031 161.910156 358.882812 162.46875 358.402344 166.320312 L 358.402344 165.597656 C 358.164062 170.089844 357.363281 174.824219 356.164062 179.15625 C 354.960938 183.488281 353.203125 187.335938 351.523438 190.386719 C 351.441406 191.109375 350.402344 193.035156 349.28125 194.878906 C 348.722656 195.839844 348.160156 196.722656 347.761719 197.445312 C 347.359375 198.167969 347.121094 198.730469 347.199219 198.890625 C 346.398438 199.933594 345.839844 200.652344 345.441406 201.136719 C 344.960938 201.695312 344.640625 202.097656 344.238281 202.5 C 343.839844 202.980469 343.441406 203.460938 342.800781 204.183594 C 342.480469 204.585938 342.160156 204.984375 341.679688 205.46875 C 341.277344 205.949219 340.71875 206.589844 340.160156 207.230469 C 339.519531 207.953125 339.117188 208.597656 338.71875 209.238281 C 338.316406 209.878906 337.839844 210.679688 337.039062 211.5625 L 336.71875 211.402344 C 336.078125 212.285156 335.4375 213.167969 334.796875 214.050781 L 333.277344 215.011719 L 331.757812 216.699219 C 332.398438 216.054688 333.195312 215.414062 333.195312 215.65625 C 332.636719 216.296875 331.917969 217.019531 331.195312 217.660156 C 330.476562 218.300781 329.757812 218.945312 329.117188 219.503906 C 327.753906 220.628906 326.714844 221.351562 326.636719 221.351562 C 324.632812 223.277344 322.554688 225.203125 320.472656 227.046875 C 320.554688 226.804688 321.59375 225.921875 322.394531 225.121094 C 319.191406 228.25 321.515625 225.363281 318.554688 228.167969 C 319.03125 227.929688 318.472656 228.488281 318.394531 228.652344 C 316.632812 229.773438 312.953125 232.582031 310.152344 234.585938 L 310.550781 234.023438 C 309.269531 234.90625 307.988281 235.789062 306.628906 236.753906 C 305.269531 237.636719 303.910156 238.597656 302.46875 239.480469 C 301.027344 240.441406 299.589844 241.324219 298.148438 242.289062 C 297.425781 242.769531 296.707031 243.25 295.988281 243.730469 C 295.265625 244.214844 294.464844 244.613281 293.746094 245.09375 C 295.988281 243.890625 295.667969 244.613281 293.90625 245.65625 L 293.027344 245.738281 C 291.984375 246.621094 294.945312 244.773438 292.785156 246.378906 C 290.546875 247.664062 291.027344 246.859375 292.304688 246.058594 L 289.664062 247.742188 C 289.425781 247.742188 290.066406 247.339844 290.144531 247.101562 C 289.664062 247.503906 288.386719 248.144531 287.105469 248.785156 C 286.464844 249.105469 285.824219 249.425781 285.265625 249.828125 C 284.703125 250.148438 284.144531 250.46875 283.824219 250.792969 L 283.582031 250.792969 C 277.421875 254.078125 274.703125 255.765625 269.582031 258.25 C 269.660156 258.574219 267.578125 259.535156 266.140625 260.496094 C 265.179688 260.898438 264.21875 261.378906 263.179688 261.78125 C 262.136719 262.261719 261.097656 262.582031 260.058594 263.066406 C 257.898438 263.945312 255.65625 264.828125 253.335938 265.871094 C 250.136719 267.476562 252.535156 266.515625 251.09375 267.316406 C 250.773438 267.15625 246.054688 269 248.375 267.878906 C 245.574219 269 243.8125 269.722656 241.8125 270.523438 C 240.851562 270.925781 239.8125 271.40625 238.53125 271.886719 C 237.25 272.371094 235.890625 272.929688 234.050781 273.574219 C 234.851562 273.414062 235.8125 273.171875 235.332031 273.414062 C 234.050781 273.894531 232.289062 274.375 232.449219 274.136719 L 232.769531 273.972656 C 231.808594 274.375 230.691406 274.777344 229.648438 275.175781 C 228.609375 275.578125 227.488281 275.980469 226.289062 276.300781 C 223.96875 276.941406 221.648438 277.585938 219.328125 278.144531 C 218.207031 278.464844 217.085938 278.789062 215.964844 279.027344 C 214.847656 279.347656 213.804688 279.589844 212.765625 279.832031 C 210.683594 280.3125 208.765625 280.875 207.164062 281.515625 L 207.5625 281.355469 C 205.324219 282.078125 203.082031 282.796875 200.761719 283.359375 C 197.5625 284 202.601562 282.71875 200.203125 283.039062 C 196.519531 284.082031 193.558594 284.722656 190.757812 285.367188 C 187.957031 285.847656 185.316406 286.246094 182.199219 286.96875 C 180.996094 286.96875 179.316406 287.210938 177.316406 287.449219 C 175.394531 287.691406 173.15625 288.011719 170.914062 288.332031 C 169.792969 288.492188 168.675781 288.65625 167.554688 288.894531 C 166.992188 288.976562 166.433594 289.054688 165.875 289.136719 C 165.3125 289.214844 164.753906 289.296875 164.273438 289.296875 C 162.113281 289.535156 160.113281 289.699219 158.429688 289.699219 L 158.832031 289.859375 C 157.152344 290.257812 156.75 289.9375 155.550781 290.019531 C 155.710938 290.179688 157.390625 290.019531 156.351562 290.257812 C 155.46875 290.339844 154.589844 290.5 153.628906 290.578125 C 152.75 290.660156 151.789062 290.738281 150.910156 290.820312 C 149.070312 290.902344 147.226562 291.0625 145.386719 291.140625 C 143.546875 291.222656 141.707031 291.382812 139.867188 291.382812 C 138.027344 291.382812 136.105469 291.382812 134.265625 291.460938 C 132.425781 291.460938 130.503906 291.460938 128.664062 291.460938 C 126.824219 291.460938 124.902344 291.382812 123.0625 291.300781 C 119.300781 291.140625 115.621094 291.0625 111.9375 290.820312 C 106.578125 290.5 108.816406 291.78125 102.097656 290.738281 C 102.738281 290.660156 103.375 290.578125 104.015625 290.5 C 98.574219 290.257812 93.054688 289.617188 87.613281 288.65625 C 82.171875 287.691406 76.890625 286.410156 71.769531 285.042969 C 72.410156 285.125 72.410156 285.042969 73.449219 285.367188 C 72.890625 285.125 72.167969 284.882812 71.367188 284.5625 C 70.566406 284.242188 69.609375 284 68.726562 283.761719 C 67.046875 283.199219 65.527344 282.796875 65.527344 282.878906 C 64.007812 282.238281 65.207031 282.558594 64.328125 282.078125 C 62.324219 281.113281 59.046875 280.152344 58.085938 279.429688 C 58.003906 279.347656 58.246094 279.429688 58.566406 279.589844 C 57.765625 279.269531 56.644531 278.628906 55.683594 278.144531 C 55.125 277.824219 54.5625 277.585938 54.242188 277.421875 C 53.925781 277.261719 53.84375 277.261719 54.164062 277.503906 C 53.285156 276.941406 52.484375 276.460938 51.683594 276.058594 C 50.882812 275.578125 50.082031 275.097656 49.363281 274.617188 C 48.960938 274.375 48.640625 274.136719 48.242188 273.894531 C 47.84375 273.652344 47.523438 273.414062 47.203125 273.171875 C 46.480469 272.691406 45.839844 272.210938 45.28125 271.726562 C 44.320312 271.246094 43.042969 270.125 41.921875 269.160156 C 40.800781 268.117188 39.761719 267.234375 39.359375 267.234375 C 39.519531 267.15625 39.28125 266.835938 38.800781 266.355469 C 38.320312 265.871094 37.679688 265.148438 36.960938 264.429688 C 36.238281 263.707031 35.4375 262.902344 34.71875 262.183594 C 34.320312 261.78125 34 261.460938 33.679688 261.140625 C 33.359375 260.820312 33.117188 260.578125 32.878906 260.335938 C 33.519531 260.898438 31.597656 258.574219 32.398438 259.132812 C 31.917969 258.574219 31.519531 258.089844 31.117188 257.53125 C 30.71875 257.046875 30.398438 256.566406 30.078125 256.164062 C 29.515625 255.445312 29.117188 255.042969 29.117188 255.363281 C 28.796875 254.800781 28.476562 254.242188 28.15625 253.597656 C 27.835938 253.039062 27.515625 252.476562 27.117188 251.914062 C 26.714844 251.351562 26.476562 250.792969 26.15625 250.308594 C 25.835938 249.75 25.515625 249.265625 25.195312 248.785156 C 24.875 248.304688 24.636719 247.824219 24.394531 247.261719 C 24.15625 246.78125 23.917969 246.300781 23.757812 245.816406 C 23.597656 245.335938 23.355469 244.933594 23.277344 244.535156 C 23.195312 244.132812 23.117188 243.730469 23.035156 243.332031 C 22.796875 242.847656 22.636719 242.367188 22.394531 241.886719 C 22.15625 241.40625 21.996094 240.925781 21.835938 240.441406 C 21.515625 239.480469 21.195312 238.519531 20.875 237.554688 C 20.394531 235.550781 19.835938 233.625 19.515625 231.699219 C 18.792969 227.769531 18.714844 223.917969 18.953125 220.066406 C 19.195312 220.226562 19.035156 222.3125 19.035156 224.320312 C 19.035156 226.324219 19.195312 228.25 19.433594 228.089844 C 19.113281 224.558594 19.035156 221.671875 19.195312 218.863281 C 19.355469 216.054688 19.753906 213.167969 20.796875 209.71875 C 21.355469 207.953125 20.714844 210.761719 20.714844 211.402344 C 21.515625 207.875 22.636719 204.585938 23.996094 201.457031 C 25.355469 198.328125 26.875 195.359375 28.398438 192.550781 C 27.996094 192.953125 28.398438 191.832031 29.039062 190.625 C 29.675781 189.183594 30.636719 187.578125 30.636719 187.417969 C 30.316406 188.542969 31.199219 187.175781 32.160156 186.054688 C 33.039062 184.929688 33.917969 183.96875 33.199219 185.574219 C 33.679688 184.851562 34.160156 183.96875 33.917969 184.050781 C 34.71875 183.085938 35.039062 182.847656 34.398438 183.96875 C 35.757812 182.125 36.078125 181.480469 36.480469 180.921875 C 36.878906 180.359375 37.199219 179.796875 38.558594 178.191406 C 38.640625 178.273438 38.160156 178.914062 37.917969 179.394531 C 39.121094 177.632812 40.320312 175.867188 42.800781 173.378906 C 42.722656 173.621094 43.042969 173.378906 42.320312 174.101562 C 46.402344 169.691406 49.121094 166.320312 54.324219 162.148438 C 53.125 163.832031 56.164062 160.785156 56.726562 160.945312 L 59.445312 158.621094 L 58.164062 159.339844 C 59.367188 158.378906 60.484375 157.417969 61.527344 156.453125 C 62.644531 155.570312 63.6875 154.6875 64.808594 153.96875 L 63.046875 155.492188 L 67.925781 152.203125 L 65.207031 154.046875 C 67.605469 151.960938 64.566406 153.804688 68.007812 151.398438 C 67.367188 151.960938 70.566406 149.636719 72.089844 148.914062 C 72.648438 148.433594 73.289062 147.871094 74.007812 147.390625 C 74.730469 146.828125 75.53125 146.347656 76.570312 145.703125 C 77.128906 145.464844 76.410156 146.347656 76.808594 146.265625 C 77.371094 145.703125 78.890625 144.660156 80.410156 143.617188 C 82.011719 142.574219 83.613281 141.53125 84.332031 140.890625 C 83.851562 141.292969 83.929688 141.53125 84.089844 141.453125 L 85.050781 140.570312 C 86.332031 139.929688 86.570312 139.847656 86.414062 140.089844 C 90.171875 137.921875 84.890625 140.328125 89.53125 137.921875 C 89.214844 138.164062 89.371094 138.082031 88.652344 138.566406 C 93.214844 136.078125 97.375 133.511719 101.695312 131.425781 C 102.417969 131.34375 101.535156 131.828125 100.574219 132.226562 C 99.695312 132.707031 98.816406 133.191406 99.617188 132.949219 C 105.695312 129.742188 112.179688 126.128906 118.339844 123.644531 L 117.21875 124.125 C 117.539062 123.644531 118.660156 123.242188 120.179688 122.761719 C 121.621094 122.28125 123.460938 121.71875 124.902344 120.917969 C 124.183594 121.238281 124.023438 121.636719 124.183594 121.476562 C 126.34375 120.675781 128.421875 119.714844 130.902344 118.75 C 132.105469 118.269531 133.382812 117.707031 134.746094 117.144531 C 136.105469 116.585938 137.625 116.023438 139.226562 115.382812 L 138.503906 115.78125 C 139.785156 115.382812 141.464844 114.820312 143.148438 114.257812 C 144.828125 113.695312 146.589844 113.136719 148.027344 112.734375 C 148.828125 112.332031 150.429688 111.851562 149.390625 111.933594 C 158.191406 110.167969 165.714844 106.71875 173.636719 105.515625 C 172.675781 105.753906 171.472656 106.15625 172.195312 105.996094 L 178.757812 104.3125 C 178.195312 104.152344 177.875 104.390625 176.4375 104.472656 C 177.234375 104.152344 179.078125 103.507812 180.675781 103.1875 C 177.714844 103.992188 180.835938 103.589844 182.117188 103.429688 C 181.878906 103.429688 182.277344 103.1875 182.199219 103.1875 C 185.796875 102.867188 182.675781 102.546875 187.480469 101.824219 L 187.238281 101.984375 C 189 101.582031 190.597656 101.023438 192.519531 100.703125 C 193.398438 100.863281 190.679688 101.183594 190.597656 101.503906 C 191.960938 101.261719 193.238281 100.78125 194.519531 100.460938 C 195.800781 100.140625 197.082031 99.820312 198.28125 99.738281 C 197.160156 100.058594 195.480469 100.300781 194.359375 100.621094 C 197.082031 100.460938 197.402344 100.300781 199.320312 100.058594 L 199.160156 100.058594 C 200.683594 99.820312 202.203125 99.578125 203.722656 99.417969 L 202.523438 99.5 C 205.804688 98.132812 209.40625 98.132812 213.886719 96.929688 C 209.484375 98.132812 213.164062 97.332031 212.925781 97.734375 C 214.125 97.652344 215.886719 97.492188 215.40625 97.652344 C 217.488281 97.011719 219.007812 97.332031 222.046875 96.53125 C 222.207031 96.609375 224.367188 96.210938 223.886719 96.53125 C 226.6875 96.046875 223.167969 96.449219 223.40625 96.289062 C 227.730469 95.328125 233.652344 95.40625 239.890625 94.203125 C 242.613281 93.800781 244.132812 93.480469 245.734375 93.160156 C 247.253906 92.839844 248.773438 92.519531 251.253906 92.277344 C 252.9375 92.277344 249.894531 92.839844 249.894531 92.839844 C 252.617188 92.761719 254.695312 92.519531 257.257812 92.199219 C 256.777344 92.359375 257.257812 92.359375 258.058594 92.4375 C 260.136719 92.277344 259.417969 91.957031 262.136719 91.878906 C 261.65625 92.039062 261.097656 92.277344 260.136719 92.519531 C 262.539062 92.199219 264.9375 91.796875 267.5 91.554688 C 268.21875 91.71875 265.980469 91.957031 265.097656 92.117188 C 267.898438 91.796875 272.460938 91.394531 273.261719 91.074219 L 271.902344 91.074219 C 272.222656 91.15625 271.820312 91.316406 271.179688 91.394531 C 268.78125 91.796875 267.660156 91.554688 267.5 91.394531 L 269.261719 91.234375 C 268.300781 90.996094 266.539062 91.15625 264.457031 91.394531 C 262.457031 91.636719 260.21875 92.039062 258.378906 92.117188 L 259.816406 91.476562 L 256.136719 92.199219 C 255.335938 92.117188 254.777344 91.957031 256.535156 91.71875 C 253.894531 91.71875 254.214844 92.117188 251.976562 92.039062 C 251.734375 92.039062 251.816406 91.957031 252.054688 91.957031 L 249.496094 92.359375 C 249.976562 92.199219 249.015625 92.039062 250.613281 91.957031 C 246.054688 92.117188 243.332031 93.082031 241.574219 92.839844 L 241.972656 92.761719 C 235.652344 93.640625 241.414062 93.160156 236.691406 94.125 L 233.410156 93.640625 L 232.851562 94.042969 C 232.210938 94.125 230.929688 94.285156 231.171875 94.042969 C 228.769531 94.605469 231.570312 94.125 230.210938 94.523438 C 228.609375 94.605469 226.449219 94.84375 224.609375 95.085938 C 222.769531 95.328125 221.246094 95.566406 220.847656 95.328125 C 219.726562 95.726562 223.886719 95.085938 220.527344 95.726562 C 219.488281 95.246094 216.6875 96.371094 213.804688 96.53125 C 214.605469 96.046875 217.328125 95.808594 214.445312 95.96875 C 212.84375 96.769531 208.925781 96.691406 206.523438 97.253906 C 206.445312 97.652344 201.320312 98.292969 197.402344 99.175781 C 197.480469 99.097656 195.640625 99.335938 193.238281 99.738281 C 190.839844 100.140625 187.957031 100.621094 186.117188 101.023438 L 186.199219 100.941406 C 185.558594 101.503906 181.71875 102.304688 178.996094 102.949219 C 179.078125 102.707031 179.554688 102.464844 180.996094 102.066406 C 180.117188 102.226562 179.238281 102.464844 178.355469 102.625 C 177.796875 102.867188 176.996094 103.1875 175.316406 103.589844 L 175.875 103.109375 C 174.113281 103.507812 172.433594 103.992188 170.59375 104.550781 C 168.753906 105.113281 166.753906 105.675781 164.511719 106.074219 C 164.351562 106.398438 168.273438 105.914062 163.632812 107.359375 C 163.390625 107.28125 163.152344 107.039062 164.351562 106.636719 C 163.953125 106.796875 162.992188 107.199219 162.113281 107.28125 L 163.871094 106.476562 C 161.792969 106.957031 162.914062 106.957031 161.230469 107.441406 C 161.230469 107.199219 160.03125 107.601562 160.191406 107.359375 C 160.589844 107.199219 161.632812 107.039062 162.191406 106.796875 C 160.351562 107.28125 158.109375 107.761719 157.390625 107.761719 C 157.550781 107.839844 157.472656 108.082031 156.191406 108.484375 C 152.75 109.527344 154.910156 108.5625 152.910156 109.042969 C 152.109375 109.445312 149.867188 109.925781 149.949219 110.246094 C 148.910156 110.570312 148.75 110.488281 148.347656 110.488281 C 146.667969 111.210938 140.1875 113.214844 142.265625 112.894531 L 142.746094 112.734375 C 142.667969 112.734375 142.585938 112.816406 142.425781 112.816406 C 140.988281 113.375 139.546875 113.9375 138.105469 114.417969 C 136.664062 114.980469 135.144531 115.382812 133.703125 115.941406 C 130.742188 116.984375 127.78125 117.949219 125.0625 119.152344 L 125.0625 119.070312 C 123.460938 119.792969 121.542969 120.515625 119.859375 121.316406 C 118.179688 122.121094 116.582031 122.84375 115.460938 123.402344 C 114.5 123.804688 113.058594 124.207031 113.460938 123.882812 C 110.980469 125.089844 110.820312 125.328125 107.136719 126.851562 C 109.539062 125.488281 106.175781 127.09375 109.617188 125.570312 C 108.019531 126.292969 106.976562 126.691406 105.9375 127.171875 C 104.898438 127.65625 103.9375 128.214844 102.257812 129.179688 C 102.738281 128.777344 102.097656 128.9375 101.214844 129.417969 C 100.734375 129.660156 100.175781 129.902344 99.617188 130.140625 C 99.054688 130.382812 98.574219 130.703125 98.253906 130.945312 C 99.054688 130.625 99.777344 130.300781 100.574219 129.980469 C 98.894531 130.863281 97.457031 131.664062 95.933594 132.386719 L 96.574219 131.585938 C 94.894531 132.386719 93.375 133.109375 91.933594 133.992188 C 90.492188 134.875 89.132812 135.757812 87.851562 136.558594 C 87.210938 136.960938 86.570312 137.363281 85.933594 137.761719 C 85.292969 138.164062 84.730469 138.566406 84.089844 138.964844 C 82.890625 139.6875 81.609375 140.410156 80.332031 140.972656 C 78.808594 142.175781 83.851562 139.046875 82.492188 140.25 C 79.609375 141.933594 76.410156 143.457031 75.53125 144.019531 C 74.570312 144.582031 73.847656 145.0625 73.289062 145.464844 C 72.730469 145.863281 72.328125 146.265625 71.929688 146.667969 C 71.128906 147.390625 70.246094 148.191406 68.246094 149.472656 C 68.808594 149.234375 69.527344 149.152344 66.648438 151.398438 C 63.925781 153.40625 62.964844 153.40625 64.648438 152.042969 C 65.285156 151.558594 65.605469 151.320312 65.605469 151.398438 C 66.40625 150.679688 67.527344 149.796875 66.40625 150.515625 L 66.328125 151.238281 C 64.886719 152.121094 61.207031 154.929688 61.925781 154.046875 C 60.324219 155.332031 60.804688 155.089844 61.925781 154.367188 C 60.566406 155.332031 59.445312 156.214844 58.324219 157.09375 C 57.042969 158.136719 55.683594 159.261719 53.921875 160.625 C 54.484375 160.222656 55.125 159.902344 54.5625 160.382812 C 52.003906 162.390625 51.523438 162.953125 51.28125 163.351562 C 50.964844 163.753906 50.964844 163.914062 49.363281 165.4375 C 47.363281 166.960938 49.683594 164.476562 46.5625 167.605469 C 44.480469 169.367188 45.921875 167.765625 46.5625 166.882812 C 43.839844 169.851562 41.039062 172.097656 39.441406 173.859375 L 40.800781 172.175781 C 40 173.140625 39.28125 173.941406 38.558594 174.742188 C 38.878906 174.503906 39.199219 174.261719 39.601562 174.023438 C 38.71875 174.902344 38 175.707031 37.917969 175.625 C 37.199219 176.75 38.878906 175.144531 37.4375 177.308594 C 36.238281 178.515625 34.320312 181.320312 33.679688 181.5625 C 36.71875 177.871094 33.679688 181.082031 35.199219 178.996094 C 34.796875 179.476562 34.320312 180.117188 33.757812 180.761719 C 33.597656 180.921875 33.839844 180.597656 34 180.277344 C 33.199219 181.242188 32.636719 181.804688 32.398438 182.285156 C 32.078125 182.765625 31.996094 183.007812 31.839844 183.328125 C 31.597656 183.886719 31.359375 184.53125 29.835938 186.695312 C 30.078125 186.054688 28.796875 187.5 28.398438 188.21875 C 29.597656 186.457031 29.199219 187.578125 28.316406 189.261719 C 26.398438 192.070312 26.554688 192.472656 25.675781 193.996094 C 25.996094 193.433594 26.398438 192.871094 26.714844 192.3125 C 26.636719 192.632812 26.398438 193.195312 25.996094 193.914062 C 25.675781 194.636719 25.195312 195.519531 24.636719 196.5625 C 24.554688 196.5625 24.636719 196.484375 24.636719 196.324219 C 23.597656 198.488281 21.914062 200.894531 21.035156 203.941406 C 20.316406 205.46875 20.636719 203.941406 19.996094 205.308594 C 19.753906 206.269531 19.515625 207.070312 19.273438 207.714844 C 19.035156 208.355469 18.875 208.917969 18.714844 209.398438 C 18.472656 209.960938 18.3125 210.519531 18.15625 211.164062 C 17.996094 211.804688 17.753906 212.6875 17.59375 213.730469 C 18.074219 212.527344 18.074219 212.367188 17.753906 215.335938 C 18.15625 213.007812 18.554688 210.679688 19.195312 208.433594 C 18.875 209.960938 18.632812 211.402344 18.472656 212.925781 C 18.714844 211.886719 18.953125 210.761719 19.195312 209.800781 C 19.433594 208.835938 19.675781 207.953125 19.914062 207.3125 C 19.515625 209.398438 19.515625 209.238281 19.996094 208.273438 C 18.714844 210.921875 18.714844 213.890625 17.996094 217.097656 L 17.355469 216.9375 C 16.875 219.425781 16.714844 221.75 16.792969 224.160156 C 16.875 226.644531 17.035156 229.210938 17.515625 232.5 L 17.355469 230.414062 C 17.515625 230.816406 17.675781 231.859375 17.835938 232.984375 C 17.914062 233.542969 17.996094 234.1875 18.074219 234.746094 C 18.234375 235.308594 18.3125 235.949219 18.472656 236.433594 C 18.234375 236.269531 18.394531 237.636719 18.472656 238.515625 C 18.632812 238.355469 19.835938 243.171875 20.554688 243.570312 L 20.957031 245.015625 C 21.113281 245.496094 21.195312 245.976562 21.355469 246.460938 C 21.914062 247.664062 22.316406 248.625 22.796875 249.425781 C 23.277344 250.230469 23.675781 250.792969 24.15625 251.433594 C 24.394531 251.753906 24.554688 252.074219 24.796875 252.394531 C 24.875 252.554688 25.035156 252.714844 25.117188 252.875 C 25.277344 253.039062 25.355469 253.199219 25.515625 253.359375 C 25.996094 254.078125 26.554688 254.882812 27.277344 255.925781 C 26.238281 254.800781 27.355469 256.808594 25.355469 254 C 26.238281 255.445312 27.035156 256.808594 27.195312 256.648438 C 27.4375 257.128906 28.15625 258.011719 28.957031 258.972656 C 29.355469 259.453125 29.757812 259.9375 30.15625 260.417969 C 30.558594 260.898438 30.878906 261.300781 31.039062 261.621094 C 31.597656 262.101562 31.839844 262.183594 33.117188 263.546875 C 33.199219 263.625 33.117188 263.625 33.117188 263.625 C 33.4375 263.867188 35.117188 265.550781 34.238281 264.269531 C 34.957031 265.390625 36.078125 266.515625 37.199219 267.71875 C 37.757812 268.359375 38.480469 268.921875 39.121094 269.480469 C 39.761719 270.042969 40.398438 270.683594 41.121094 271.246094 C 42.5625 272.371094 43.921875 273.414062 45.203125 274.375 C 45.839844 274.855469 46.480469 275.339844 46.960938 275.738281 C 47.523438 276.140625 48.003906 276.542969 48.480469 276.941406 C 49.28125 277.421875 50.082031 277.984375 50.964844 278.386719 C 51.84375 278.867188 52.722656 279.347656 53.605469 279.832031 C 54.484375 280.3125 55.363281 280.710938 56.246094 281.113281 C 56.644531 281.355469 57.042969 281.515625 57.445312 281.753906 C 57.84375 281.914062 58.246094 282.078125 58.644531 282.316406 C 58.40625 282.316406 58.566406 282.398438 58.003906 282.15625 C 62.164062 284.242188 60.804688 282.796875 65.605469 284.882812 C 66.808594 285.527344 66.167969 285.285156 65.367188 285.042969 C 64.566406 284.804688 63.6875 284.402344 64.488281 284.804688 C 64.648438 285.285156 66.167969 285.765625 68.007812 286.410156 C 68.96875 286.730469 69.929688 286.96875 70.96875 287.289062 C 71.929688 287.613281 72.890625 287.933594 73.769531 288.253906 L 72.96875 288.09375 C 75.53125 289.136719 79.371094 289.535156 83.691406 290.5 C 83.691406 290.5 83.453125 290.5 83.613281 290.578125 C 84.332031 290.660156 85.292969 290.738281 86.332031 290.820312 C 87.371094 290.980469 88.492188 291.0625 89.613281 291.222656 C 91.933594 291.542969 94.414062 291.78125 96.496094 291.941406 C 95.132812 292.105469 94.574219 291.863281 95.292969 292.265625 C 97.214844 292.425781 94.8125 291.703125 98.574219 292.105469 C 99.777344 292.425781 102.496094 292.746094 102.816406 293.148438 L 99.296875 292.824219 C 101.054688 293.386719 103.9375 293.226562 105.777344 293.46875 L 105.539062 293.628906 C 108.257812 293.789062 109.699219 293.707031 111.140625 293.707031 C 111.859375 293.707031 112.578125 293.628906 113.539062 293.628906 C 114.417969 293.628906 115.539062 293.628906 117.058594 293.707031 L 116.421875 293.546875 C 119.621094 293.148438 119.0625 293.867188 122.339844 293.546875 L 123.300781 294.027344 C 124.34375 293.949219 126.183594 293.949219 128.261719 293.867188 C 130.34375 293.707031 132.585938 293.546875 134.503906 293.46875 C 132.34375 293.867188 127.941406 294.191406 125.140625 294.269531 C 125.703125 294.269531 126.34375 294.269531 127.144531 294.269531 C 127.542969 294.269531 127.941406 294.269531 128.34375 294.269531 C 128.742188 294.269531 129.144531 294.269531 129.625 294.191406 C 131.304688 294.109375 132.824219 294.027344 133.382812 293.867188 C 132.503906 293.949219 131.464844 294.109375 130.664062 294.027344 C 133.222656 293.628906 136.585938 293.308594 140.746094 293.226562 C 140.425781 293.707031 143.148438 293.546875 146.269531 293.386719 C 147.867188 293.308594 149.546875 293.226562 151.070312 293.148438 C 152.589844 293.066406 153.871094 293.148438 154.671875 293.226562 C 158.351562 292.664062 161.953125 292.34375 165.792969 292.023438 C 169.554688 291.621094 173.554688 291.0625 177.796875 290.5 C 174.675781 290.257812 180.277344 290.097656 179.636719 289.457031 C 181.558594 289.054688 182.355469 288.894531 182.515625 288.976562 L 188.597656 288.332031 C 190.039062 288.253906 186.757812 288.816406 187 288.976562 C 191.320312 288.253906 188.839844 288.976562 191.800781 288.574219 C 191.160156 288.492188 193.238281 287.851562 195.722656 287.449219 L 191.960938 287.773438 C 197.882812 286.085938 197.242188 287.210938 203.242188 285.445312 L 201.402344 286.085938 C 202.203125 285.847656 203.242188 285.605469 204.523438 285.285156 C 205.804688 284.964844 207.164062 284.5625 208.605469 284.164062 C 211.40625 283.359375 214.207031 282.476562 215.644531 281.835938 C 216.207031 281.753906 217.007812 281.753906 215.644531 282.15625 C 219.328125 281.113281 223.328125 279.75 227.089844 278.464844 C 228.050781 278.144531 229.007812 277.824219 229.890625 277.421875 C 230.769531 277.101562 231.648438 276.78125 232.53125 276.460938 C 234.210938 275.820312 235.8125 275.339844 237.25 274.9375 L 236.773438 275.257812 C 238.050781 274.695312 239.011719 274.132812 240.691406 273.734375 C 240.613281 273.8125 240.210938 274.132812 240.851562 273.894531 C 241.492188 273.574219 244.214844 272.210938 246.054688 271.648438 L 244.613281 272.449219 C 246.375 271.808594 247.894531 271.246094 249.253906 270.605469 C 250.613281 270.042969 251.894531 269.480469 253.097656 268.839844 C 255.496094 267.636719 257.738281 266.433594 260.539062 265.070312 C 260.617188 265.3125 262.058594 264.910156 263.738281 264.269531 C 265.417969 263.546875 267.417969 262.664062 268.78125 262.101562 L 268.699219 262.183594 C 270.621094 261.21875 272.460938 260.335938 274.140625 259.453125 C 275.019531 259.054688 275.820312 258.574219 276.621094 258.089844 C 277.421875 257.609375 278.222656 257.207031 278.941406 256.726562 C 280.460938 255.84375 281.984375 254.882812 283.582031 254 C 284.382812 253.519531 285.183594 253.039062 285.984375 252.554688 C 286.785156 252.074219 287.585938 251.511719 288.464844 251.03125 C 289.585938 250.550781 291.105469 249.75 292.785156 248.785156 C 293.667969 248.304688 294.546875 247.824219 295.507812 247.261719 C 296.46875 246.699219 297.425781 246.21875 298.386719 245.578125 C 300.308594 244.375 302.308594 243.089844 304.308594 241.804688 C 306.230469 240.601562 308.148438 239.398438 309.832031 238.355469 C 308.789062 239 309.75 237.957031 310.949219 237.074219 C 312.550781 236.109375 314.953125 233.785156 315.03125 234.347656 L 314.472656 234.746094 C 315.910156 234.265625 318.871094 231.859375 321.273438 230.015625 L 321.273438 229.210938 C 324.632812 227.125 328.476562 223.597656 331.835938 220.308594 C 335.195312 216.9375 337.996094 213.730469 339.679688 212.367188 C 340.238281 211.5625 340.878906 210.761719 341.597656 209.878906 C 342.238281 208.996094 342.878906 208.195312 343.4375 207.394531 L 343.597656 207.714844 C 344.398438 206.671875 345.121094 205.789062 345.839844 204.90625 C 346.480469 204.023438 347.121094 203.222656 347.761719 202.339844 C 348.960938 200.574219 350.242188 198.648438 351.839844 195.761719 L 351.363281 197.042969 C 352.320312 195.441406 352.640625 194.316406 352.960938 193.195312 C 353.121094 192.632812 353.28125 192.070312 353.441406 191.507812 C 353.601562 190.867188 353.84375 190.226562 354.242188 189.503906 C 354.5625 189.261719 354.800781 189.023438 355.121094 188.78125 C 356.402344 185.8125 357.601562 182.765625 358.5625 179.636719 C 359.523438 176.507812 360.082031 173.300781 360.242188 170.011719 C 360.324219 170.089844 360.402344 170.332031 360.324219 171.375 C 360.402344 170.570312 360.5625 169.449219 360.722656 168.246094 C 360.804688 167.605469 360.804688 166.960938 360.882812 166.320312 C 360.882812 166 360.964844 165.679688 360.964844 165.359375 C 360.964844 165.035156 360.964844 164.714844 360.964844 164.394531 C 360.964844 161.988281 360.722656 160.222656 360.484375 160.382812 Z M 330.074219 109.125 C 330.074219 109.125 329.996094 109.042969 329.914062 109.042969 C 330.074219 109.042969 330.15625 109.125 330.394531 109.203125 C 331.355469 109.847656 331.597656 110.167969 331.757812 110.328125 C 331.355469 110.007812 330.796875 109.605469 330.074219 109.125 Z M 335.355469 116.265625 C 334.796875 115.78125 334.316406 115.300781 333.996094 115.0625 C 334.316406 115.300781 334.636719 115.621094 335.355469 116.265625 Z M 338.398438 119.070312 C 338.316406 118.832031 338.558594 118.910156 339.117188 119.472656 C 338.796875 119.230469 339.917969 120.515625 340.636719 121.398438 C 340 120.757812 339.199219 119.875 338.398438 119.070312 Z M 338.398438 119.070312 " fill-opacity="1" fill-rule="nonzero"/></g><path fill="#515857" d="M 224.929688 94.765625 L 229.488281 94.285156 C 228.6875 94.285156 227.648438 94.203125 229.648438 93.964844 C 223.886719 94.285156 230.851562 94.125 224.929688 94.765625 Z M 224.929688 94.765625 " fill-opacity="1" fill-rule="nonzero"/><path fill="#515857" d="M 328.476562 108.242188 C 328.316406 108.160156 328.234375 108.082031 328.074219 108 C 328.234375 108.160156 328.394531 108.320312 328.636719 108.484375 C 328.796875 108.5625 328.875 108.5625 329.035156 108.644531 C 328.796875 108.5625 328.636719 108.402344 328.476562 108.242188 Z M 328.476562 108.242188 " fill-opacity="1" fill-rule="nonzero"/><path fill="#515857" d="M 356.804688 144.019531 C 356.882812 144.179688 356.882812 144.339844 356.964844 144.5 C 356.964844 144.339844 356.882812 144.101562 356.804688 144.019531 Z M 356.804688 144.019531 " fill-opacity="1" fill-rule="nonzero"/><path fill="#515857" d="M 182.4375 288.976562 L 182.039062 289.054688 C 182.195312 288.976562 182.277344 288.976562 182.4375 288.976562 Z M 182.4375 288.976562 " fill-opacity="1" fill-rule="nonzero"/><path fill="#515857" d="M 272.378906 91.636719 C 272.941406 91.636719 273.582031 91.554688 273.902344 91.476562 Z M 272.378906 91.636719 " fill-opacity="1" fill-rule="nonzero"/><path fill="#515857" d="M 275.421875 91.476562 C 277.023438 90.996094 277.421875 91.15625 279.183594 90.59375 C 280.621094 90.433594 281.664062 90.59375 281.421875 90.753906 C 281.902344 90.59375 283.664062 90.753906 284.382812 90.433594 C 282.542969 90.273438 280.222656 90.351562 277.742188 90.753906 C 277.183594 90.675781 277.742188 90.59375 277.820312 90.511719 C 276.222656 90.753906 274.300781 91.15625 275.421875 91.476562 Z M 275.421875 91.476562 " fill-opacity="1" fill-rule="nonzero"/><path fill="#515857" d="M 282.0625 89.070312 C 281.582031 88.828125 281.261719 88.667969 281.023438 88.507812 C 281.34375 88.828125 277.820312 87.867188 282.0625 89.070312 Z M 282.0625 89.070312 " fill-opacity="1" fill-rule="nonzero"/><path fill="#515857" d="M 272.378906 91.636719 C 272.0625 91.636719 271.742188 91.71875 271.660156 91.71875 Z M 272.378906 91.636719 " fill-opacity="1" fill-rule="nonzero"/><path fill="#515857" d="M 98.175781 133.351562 L 95.855469 134.632812 L 97.535156 133.992188 Z M 98.175781 133.351562 " fill-opacity="1" fill-rule="nonzero"/><path fill="#515857" d="M 252.695312 93.402344 L 252.855469 93.320312 C 252.054688 93.5625 248.855469 93.402344 247.65625 93.722656 C 248.933594 93.5625 250.933594 93.640625 252.695312 93.402344 Z M 252.695312 93.402344 " fill-opacity="1" fill-rule="nonzero"/><path fill="#515857" d="M 253.097656 93.082031 L 252.9375 93.242188 C 252.9375 93.242188 253.015625 93.160156 253.097656 93.082031 Z M 253.097656 93.082031 " fill-opacity="1" fill-rule="nonzero"/><path fill="#515857" d="M 210.925781 96.371094 C 209.40625 96.691406 209.003906 96.769531 210.84375 96.609375 C 213.324219 96.210938 210.84375 96.53125 210.925781 96.371094 Z M 210.925781 96.371094 " fill-opacity="1" fill-rule="nonzero"/><path fill="#515857" d="M 43.761719 270.445312 C 44.242188 270.925781 44.722656 271.488281 45.363281 271.96875 C 45.523438 272.050781 45.679688 272.128906 45.761719 272.128906 C 45.042969 271.648438 44.402344 271.007812 43.761719 270.445312 Z M 43.761719 270.445312 " fill-opacity="1" fill-rule="nonzero"/><path fill="#515857" d="M 27.996094 194.15625 C 27.917969 194.316406 27.835938 194.476562 27.757812 194.636719 C 27.195312 195.761719 27.597656 194.957031 27.996094 194.15625 Z M 27.996094 194.15625 " fill-opacity="1" fill-rule="nonzero"/><path fill="#515857" d="M 35.277344 262.664062 C 34.957031 262.261719 34.480469 261.78125 34.078125 261.300781 C 33.597656 260.820312 33.199219 260.257812 32.796875 259.695312 C 33.199219 260.175781 33.597656 260.738281 34 261.21875 Z M 35.277344 262.664062 " fill-opacity="1" fill-rule="nonzero"/><path fill="#515857" d="M 28.957031 192.472656 C 29.277344 191.992188 29.4375 191.667969 29.277344 191.667969 C 29.117188 192.070312 28.878906 192.390625 28.71875 192.792969 C 28.636719 192.871094 28.636719 192.871094 28.558594 192.953125 C 28.558594 193.035156 28.316406 193.59375 27.996094 194.238281 C 28.316406 193.675781 28.71875 193.035156 28.957031 192.472656 Z M 28.957031 192.472656 " fill-opacity="1" fill-rule="nonzero"/><path fill="#515857" d="M 72.007812 148.914062 C 71.449219 149.3125 70.96875 149.796875 70.40625 150.195312 C 71.367188 149.554688 72.089844 149.074219 72.007812 148.914062 Z M 72.007812 148.914062 " fill-opacity="1" fill-rule="nonzero"/><path fill="#515857" d="M 70.40625 150.195312 C 69.609375 150.679688 68.726562 151.320312 68.007812 151.882812 C 68.96875 151.320312 69.769531 150.757812 70.40625 150.195312 Z M 70.40625 150.195312 " fill-opacity="1" fill-rule="nonzero"/><path fill="#515857" d="M 336.636719 211.484375 L 336.71875 211.5625 L 337.117188 211.003906 Z M 336.636719 211.484375 " fill-opacity="1" fill-rule="nonzero"/><path fill="#515857" d="M 58.726562 279.75 C 58.886719 279.832031 59.125 279.910156 59.207031 279.910156 C 59.125 279.910156 58.886719 279.832031 58.726562 279.75 Z M 58.726562 279.75 " fill-opacity="1" fill-rule="nonzero"/><path fill="#515857" d="M 207.722656 82.652344 C 207.722656 82.570312 207.644531 82.570312 207.722656 82.652344 C 207.484375 82.570312 207.484375 82.652344 207.722656 82.652344 Z M 207.722656 82.652344 " fill-opacity="1" fill-rule="nonzero"/><path fill="#515857" d="M 174.433594 87.0625 L 174.914062 86.902344 C 174.914062 86.824219 174.996094 86.742188 174.996094 86.664062 Z M 174.433594 87.0625 " fill-opacity="1" fill-rule="nonzero"/><path fill="#515857" d="M 195.402344 84.015625 C 195.242188 84.015625 195.082031 84.097656 194.921875 84.097656 C 195.082031 84.097656 195.242188 84.097656 195.402344 84.015625 Z M 195.402344 84.015625 " fill-opacity="1" fill-rule="nonzero"/><path fill="#515857" d="M 331.757812 216.859375 C 331.515625 217.097656 331.277344 217.339844 331.117188 217.5 Z M 331.757812 216.859375 " fill-opacity="1" fill-rule="nonzero"/></svg>