<svg xmlns="http://www.w3.org/2000/svg" xmlns:xlink="http://www.w3.org/1999/xlink" width="500" zoomAndPan="magnify" viewBox="0 0 375 225" height="300" preserveAspectRatio="xMidYMid meet" version="1.0"><defs><g/></defs><g fill="#ffffff" fill-opacity="1"><g transform="translate(81.057142, 150.386837)"><g><path d="M 5.328125 0 L 5.328125 -1.90625 L 13.328125 -1.90625 C 15.984375 -1.90625 18.265625 -2.535156 20.171875 -3.796875 C 22.078125 -5.066406 23.03125 -8.242188 23.03125 -13.328125 L 23.03125 -121.609375 C 23.03125 -127.066406 22.109375 -130.492188 20.265625 -131.890625 C 18.429688 -133.285156 16.117188 -133.984375 13.328125 -133.984375 L 5.328125 -133.984375 L 5.328125 -135.890625 L 110.578125 -135.890625 L 111.71875 -100.859375 L 109.8125 -100.859375 L 109.234375 -107.34375 C 108.347656 -116.976562 105.585938 -123.828125 100.953125 -127.890625 C 96.328125 -131.953125 88.941406 -133.984375 78.796875 -133.984375 L 53.28125 -133.984375 L 53.28125 -71.9375 L 98.390625 -71.9375 L 98.390625 -70.03125 L 53.28125 -70.03125 L 53.28125 -1.90625 L 85.265625 -1.90625 C 95.410156 -1.90625 102.796875 -3.929688 107.421875 -7.984375 C 112.054688 -12.046875 114.816406 -18.960938 115.703125 -28.734375 L 116.28125 -35.015625 L 118.1875 -35.015625 L 116.859375 0 Z M 5.328125 0 "/></g></g></g><g fill="#ffffff" fill-opacity="1"><g transform="translate(205.320989, 150.386837)"><g><path d="M -4 45.671875 L -4 43.765625 L -0.578125 43.765625 C 3.484375 43.765625 7.351562 42.6875 11.03125 40.53125 C 14.71875 38.375 17.703125 34.820312 19.984375 29.875 C 22.265625 24.925781 23.40625 18.203125 23.40625 9.703125 L 23.40625 -122.375 C 23.40625 -127.445312 22.453125 -130.648438 20.546875 -131.984375 C 18.648438 -133.316406 16.367188 -133.984375 13.703125 -133.984375 L 5.703125 -133.984375 L 5.703125 -135.890625 L 71.359375 -135.890625 L 71.359375 -133.984375 L 63.375 -133.984375 C 60.582031 -133.984375 58.234375 -133.285156 56.328125 -131.890625 C 54.429688 -130.492188 53.484375 -127.066406 53.484375 -121.609375 L 53.484375 0.375 C 53.484375 9.007812 52.085938 16.242188 49.296875 22.078125 C 46.503906 27.910156 42.726562 32.539062 37.96875 35.96875 C 33.207031 39.394531 27.78125 41.867188 21.6875 43.390625 C 15.601562 44.910156 9.328125 45.671875 2.859375 45.671875 Z M -4 45.671875 "/></g></g></g><g fill="#a3a5a5" fill-opacity="1"><g transform="translate(7.8138, 110.916802)"><g><path d="M 9.261719 5.15625 C 17.230469 5.15625 28.835938 -2.226562 36.105469 -8.910156 C 36.222656 -9.027344 36.339844 -9.261719 36.339844 -9.378906 C 36.339844 -9.730469 35.988281 -10.082031 35.636719 -10.082031 C 35.402344 -10.082031 35.285156 -9.964844 35.167969 -9.964844 C 28.015625 -3.398438 16.878906 3.867188 9.261719 3.867188 C 4.453125 3.867188 2.226562 2.109375 2.226562 -1.757812 C 2.226562 -9.730469 16.996094 -21.335938 31.179688 -25.203125 C 32.121094 -25.4375 33.058594 -25.554688 33.878906 -25.789062 C 34.347656 -26.023438 34.464844 -26.257812 34.347656 -26.726562 C 34.230469 -27.078125 33.996094 -27.3125 33.644531 -27.195312 C 32.707031 -27.078125 31.769531 -26.84375 30.828125 -26.492188 C 29.539062 -26.375 28.367188 -26.257812 27.195312 -26.257812 C 24.03125 -26.257812 21.921875 -27.429688 21.921875 -29.304688 C 21.921875 -32.472656 28.367188 -36.808594 33.175781 -36.808594 C 34.933594 -36.808594 35.988281 -35.402344 35.988281 -33.058594 C 35.988281 -32.707031 36.339844 -32.355469 36.691406 -32.355469 C 37.042969 -32.355469 37.394531 -32.707031 37.394531 -33.058594 C 37.394531 -36.105469 35.753906 -38.214844 33.175781 -38.214844 C 27.546875 -38.214844 20.515625 -33.292969 20.515625 -29.304688 C 20.515625 -27.078125 22.507812 -25.4375 25.320312 -24.96875 C 25.554688 -24.96875 25.671875 -24.851562 25.4375 -24.734375 C 12.542969 -19.578125 0.9375 -9.378906 0.9375 -1.757812 C 0.9375 2.929688 3.75 5.15625 9.261719 5.15625 Z M 9.261719 5.15625 "/></g></g></g><g fill="#a3a5a5" fill-opacity="1"><g transform="translate(41.101261, 110.916802)"><g><path d="M -3.28125 0.703125 C -2.34375 0.703125 -0.703125 -0.46875 4.570312 -4.921875 C 9.847656 -9.144531 15.941406 -14.300781 18.753906 -14.300781 C 19.226562 -14.300781 19.460938 -14.066406 19.460938 -13.714844 C 19.460938 -12.894531 18.519531 -11.136719 16.058594 -7.269531 C 13.832031 -4.101562 13.246094 -2.929688 13.246094 -2.109375 C 13.246094 -1.523438 13.480469 -1.054688 14.066406 -1.054688 C 14.769531 -1.054688 15.941406 -1.640625 19.109375 -3.632812 C 23.210938 -6.09375 24.851562 -6.917969 25.671875 -6.917969 C 26.023438 -6.917969 26.140625 -6.683594 26.140625 -6.566406 C 26.140625 -6.09375 26.023438 -5.507812 25.90625 -4.804688 C 25.789062 -4.101562 25.789062 -3.28125 25.789062 -2.460938 C 25.789062 -1.054688 26.84375 -0.234375 28.71875 -0.234375 C 32.003906 -0.234375 36.925781 -2.695312 46.070312 -9.027344 C 46.304688 -9.144531 46.421875 -9.378906 46.421875 -9.613281 C 46.421875 -9.964844 46.070312 -10.199219 45.71875 -10.199219 C 45.601562 -10.199219 45.484375 -10.199219 45.367188 -10.082031 C 36.457031 -3.984375 31.648438 -1.523438 28.71875 -1.523438 C 27.546875 -1.523438 27.078125 -1.875 27.078125 -2.460938 C 27.078125 -3.164062 27.195312 -3.984375 27.3125 -4.6875 C 27.3125 -5.273438 27.429688 -5.976562 27.429688 -6.566406 C 27.429688 -7.621094 26.960938 -8.207031 25.90625 -8.207031 C 24.265625 -8.207031 21.101562 -6.328125 18.402344 -4.804688 L 15.824219 -3.164062 C 15.355469 -2.929688 15.003906 -3.28125 15.355469 -3.75 L 17.113281 -6.566406 C 19.8125 -10.667969 20.867188 -12.425781 20.867188 -13.832031 C 20.867188 -15.003906 19.929688 -15.589844 18.402344 -15.589844 C 16.175781 -15.589844 12.425781 -13.011719 3.75 -5.859375 C 1.171875 -3.867188 -0.46875 -2.460938 -1.640625 -1.640625 C -1.992188 -1.40625 -2.460938 -1.640625 -2.109375 -2.109375 C -0.703125 -4.570312 2.695312 -9.027344 6.449219 -12.425781 C 6.566406 -12.542969 6.683594 -12.777344 6.683594 -12.894531 C 6.683594 -13.363281 6.328125 -13.597656 5.976562 -13.597656 C 5.859375 -13.597656 5.625 -13.597656 5.507812 -13.480469 C 1.40625 -9.730469 -4.335938 -2.109375 -4.335938 -0.46875 C -4.335938 0.234375 -3.984375 0.585938 -3.28125 0.703125 Z M -3.28125 0.703125 "/></g></g></g><g fill="#a3a5a5" fill-opacity="1"><g transform="translate(84.234324, 110.916802)"><g><path d="M -3.28125 0.703125 C -2.34375 0.703125 -0.703125 -0.46875 4.570312 -4.921875 C 9.847656 -9.144531 15.941406 -14.300781 18.753906 -14.300781 C 19.226562 -14.300781 19.460938 -14.066406 19.460938 -13.714844 C 19.460938 -12.894531 18.519531 -11.136719 16.058594 -7.269531 C 13.832031 -4.101562 13.246094 -2.929688 13.246094 -2.109375 C 13.246094 -1.523438 13.480469 -1.054688 14.066406 -1.054688 C 14.769531 -1.054688 15.941406 -1.640625 19.109375 -3.632812 C 23.210938 -6.09375 24.851562 -6.917969 25.671875 -6.917969 C 26.023438 -6.917969 26.140625 -6.683594 26.140625 -6.566406 C 26.140625 -6.09375 26.023438 -5.507812 25.90625 -4.804688 C 25.789062 -4.101562 25.789062 -3.28125 25.789062 -2.460938 C 25.789062 -1.054688 26.84375 -0.234375 28.71875 -0.234375 C 32.003906 -0.234375 36.925781 -2.695312 46.070312 -9.027344 C 46.304688 -9.144531 46.421875 -9.378906 46.421875 -9.613281 C 46.421875 -9.964844 46.070312 -10.199219 45.71875 -10.199219 C 45.601562 -10.199219 45.484375 -10.199219 45.367188 -10.082031 C 36.457031 -3.984375 31.648438 -1.523438 28.71875 -1.523438 C 27.546875 -1.523438 27.078125 -1.875 27.078125 -2.460938 C 27.078125 -3.164062 27.195312 -3.984375 27.3125 -4.6875 C 27.3125 -5.273438 27.429688 -5.976562 27.429688 -6.566406 C 27.429688 -7.621094 26.960938 -8.207031 25.90625 -8.207031 C 24.265625 -8.207031 21.101562 -6.328125 18.402344 -4.804688 L 15.824219 -3.164062 C 15.355469 -2.929688 15.003906 -3.28125 15.355469 -3.75 L 17.113281 -6.566406 C 19.8125 -10.667969 20.867188 -12.425781 20.867188 -13.832031 C 20.867188 -15.003906 19.929688 -15.589844 18.402344 -15.589844 C 16.175781 -15.589844 12.425781 -13.011719 3.75 -5.859375 C 1.171875 -3.867188 -0.46875 -2.460938 -1.640625 -1.640625 C -1.992188 -1.40625 -2.460938 -1.640625 -2.109375 -2.109375 C -0.703125 -4.570312 2.695312 -9.027344 6.449219 -12.425781 C 6.566406 -12.542969 6.683594 -12.777344 6.683594 -12.894531 C 6.683594 -13.363281 6.328125 -13.597656 5.976562 -13.597656 C 5.859375 -13.597656 5.625 -13.597656 5.507812 -13.480469 C 1.40625 -9.730469 -4.335938 -2.109375 -4.335938 -0.46875 C -4.335938 0.234375 -3.984375 0.585938 -3.28125 0.703125 Z M -3.28125 0.703125 "/></g></g></g><g fill="#a3a5a5" fill-opacity="1"><g transform="translate(127.367386, 110.916802)"><g><path d="M 15.824219 0.117188 C 19.929688 0.117188 30.710938 -4.335938 37.277344 -9.027344 C 37.394531 -9.144531 37.511719 -9.378906 37.511719 -9.613281 C 37.511719 -9.964844 37.277344 -10.199219 36.925781 -10.199219 C 36.691406 -10.199219 36.574219 -10.199219 36.457031 -10.082031 C 29.890625 -5.15625 19.460938 -1.289062 15.824219 -1.289062 C 13.832031 -1.289062 12.894531 -1.875 12.894531 -3.398438 C 12.894531 -5.625 14.769531 -8.441406 16.175781 -10.433594 C 16.996094 -11.605469 17.464844 -12.308594 17.464844 -12.777344 C 17.464844 -13.246094 17.113281 -13.597656 16.644531 -13.597656 C 16.058594 -13.597656 14.652344 -12.660156 12.191406 -10.785156 C 11.488281 -12.074219 10.667969 -12.542969 8.910156 -12.542969 C 4.921875 -12.542969 -5.625 -5.976562 -5.625 -1.992188 C -5.625 -0.820312 -4.804688 -0.117188 -3.515625 -0.117188 C -0.234375 -0.117188 7.035156 -5.507812 11.957031 -9.027344 C 12.894531 -9.730469 13.714844 -10.316406 14.300781 -10.667969 C 14.535156 -10.902344 14.886719 -10.785156 14.535156 -10.433594 C 13.128906 -8.324219 11.605469 -5.742188 11.605469 -3.398438 C 11.605469 -1.054688 13.011719 0.117188 15.824219 0.117188 Z M -3.515625 -1.523438 C -4.101562 -1.523438 -4.335938 -1.640625 -4.335938 -1.992188 C -4.335938 -4.804688 4.921875 -11.253906 8.910156 -11.253906 C 10.199219 -11.253906 10.550781 -11.019531 11.019531 -10.082031 C 6.210938 -6.449219 -0.703125 -1.523438 -3.515625 -1.523438 Z M -3.515625 -1.523438 "/></g></g></g><g fill="#a3a5a5" fill-opacity="1"><g transform="translate(161.592527, 110.916802)"><g/></g></g><g fill="#a3a5a5" fill-opacity="1"><g transform="translate(187.495803, 110.916802)"><g><path d="M 8.207031 -16.410156 C 8.441406 -16.410156 8.558594 -16.527344 8.675781 -16.644531 C 8.910156 -16.761719 9.144531 -16.996094 9.378906 -17.230469 C 9.496094 -17.464844 9.730469 -17.699219 9.964844 -17.933594 C 10.082031 -18.050781 10.082031 -18.167969 10.082031 -18.402344 C 10.082031 -18.753906 9.847656 -18.988281 9.496094 -18.988281 C 9.261719 -18.988281 9.027344 -18.988281 8.910156 -18.871094 C 8.792969 -18.636719 8.558594 -18.402344 8.324219 -18.167969 L 7.738281 -17.582031 C 7.621094 -17.464844 7.621094 -17.230469 7.621094 -17.113281 C 7.621094 -16.761719 7.855469 -16.410156 8.207031 -16.410156 Z M -55.09375 47.945312 C -50.757812 47.945312 -43.488281 42.667969 -32.824219 32.003906 L -17.464844 15.941406 C -11.839844 12.191406 -6.210938 8.558594 -1.054688 5.273438 C 9.144531 -1.289062 17.347656 -6.566406 20.164062 -8.792969 C 20.28125 -8.910156 20.398438 -9.144531 20.398438 -9.378906 C 20.398438 -9.730469 20.046875 -9.964844 19.695312 -9.964844 C 19.578125 -9.964844 19.460938 -9.964844 19.34375 -9.847656 C 16.527344 -7.621094 8.324219 -2.34375 -1.757812 4.101562 L -13.949219 11.957031 C -6.09375 3.28125 -0.9375 -3.28125 3.867188 -9.613281 L 3.984375 -10.082031 C 3.984375 -10.433594 3.632812 -10.785156 3.28125 -10.785156 C 3.046875 -10.785156 2.8125 -10.667969 2.695312 -10.433594 C -2.695312 -3.28125 -8.558594 4.21875 -18.402344 14.886719 L -20.867188 16.527344 C -46.773438 33.527344 -57.910156 41.964844 -57.910156 45.25 C -57.910156 46.890625 -56.851562 47.945312 -55.09375 47.945312 Z M -55.09375 46.539062 C -56.148438 46.539062 -56.617188 46.070312 -56.617188 45.25 C -56.617188 42.902344 -45.484375 34.347656 -22.273438 18.988281 C -25.671875 22.625 -29.421875 26.609375 -33.878906 31.0625 C -44.074219 41.378906 -51.226562 46.539062 -55.09375 46.539062 Z M -55.09375 46.539062 "/></g></g></g><g fill="#a3a5a5" fill-opacity="1"><g transform="translate(204.842783, 110.916802)"><g><path d="M 15.824219 0.117188 C 19.929688 0.117188 30.710938 -4.335938 37.277344 -9.027344 C 37.394531 -9.144531 37.511719 -9.378906 37.511719 -9.613281 C 37.511719 -9.964844 37.277344 -10.199219 36.925781 -10.199219 C 36.691406 -10.199219 36.574219 -10.199219 36.457031 -10.082031 C 29.890625 -5.15625 19.460938 -1.289062 15.824219 -1.289062 C 13.832031 -1.289062 12.894531 -1.875 12.894531 -3.398438 C 12.894531 -5.625 14.769531 -8.441406 16.175781 -10.433594 C 16.996094 -11.605469 17.464844 -12.308594 17.464844 -12.777344 C 17.464844 -13.246094 17.113281 -13.597656 16.644531 -13.597656 C 16.058594 -13.597656 14.652344 -12.660156 12.191406 -10.785156 C 11.488281 -12.074219 10.667969 -12.542969 8.910156 -12.542969 C 4.921875 -12.542969 -5.625 -5.976562 -5.625 -1.992188 C -5.625 -0.820312 -4.804688 -0.117188 -3.515625 -0.117188 C -0.234375 -0.117188 7.035156 -5.507812 11.957031 -9.027344 C 12.894531 -9.730469 13.714844 -10.316406 14.300781 -10.667969 C 14.535156 -10.902344 14.886719 -10.785156 14.535156 -10.433594 C 13.128906 -8.324219 11.605469 -5.742188 11.605469 -3.398438 C 11.605469 -1.054688 13.011719 0.117188 15.824219 0.117188 Z M -3.515625 -1.523438 C -4.101562 -1.523438 -4.335938 -1.640625 -4.335938 -1.992188 C -4.335938 -4.804688 4.921875 -11.253906 8.910156 -11.253906 C 10.199219 -11.253906 10.550781 -11.019531 11.019531 -10.082031 C 6.210938 -6.449219 -0.703125 -1.523438 -3.515625 -1.523438 Z M -3.515625 -1.523438 "/></g></g></g><g fill="#a3a5a5" fill-opacity="1"><g transform="translate(239.067924, 110.916802)"><g><path d="M -3.28125 0 C -2.8125 0 -1.757812 -0.9375 -0.351562 -1.875 C 4.21875 -5.15625 13.480469 -11.957031 17.230469 -11.957031 C 17.699219 -11.957031 17.816406 -11.605469 17.816406 -11.371094 C 17.816406 -10.785156 17.347656 -8.910156 16.878906 -7.269531 C 16.527344 -5.742188 16.175781 -4.21875 16.175781 -3.515625 C 16.175781 -2.109375 17.230469 -1.289062 18.871094 -1.289062 C 23.09375 -1.289062 30.476562 -4.335938 37.628906 -9.027344 C 37.863281 -9.144531 37.980469 -9.378906 37.980469 -9.613281 C 37.980469 -9.964844 37.628906 -10.199219 37.277344 -10.199219 L 36.925781 -10.199219 C 29.890625 -5.507812 22.742188 -2.578125 18.871094 -2.578125 C 17.933594 -2.578125 17.582031 -2.929688 17.582031 -3.515625 C 17.582031 -4.101562 17.816406 -5.390625 18.285156 -6.917969 C 18.636719 -8.675781 19.109375 -10.550781 19.109375 -11.605469 C 19.109375 -12.660156 18.402344 -13.246094 17.230469 -13.246094 C 14.183594 -13.246094 8.675781 -10.082031 -0.585938 -3.398438 C -1.171875 -3.046875 -1.289062 -3.515625 -1.054688 -3.867188 C 1.523438 -7.503906 6.566406 -13.363281 11.253906 -16.878906 C 11.371094 -16.996094 11.488281 -17.230469 11.488281 -17.464844 C 11.488281 -17.816406 11.253906 -18.050781 10.902344 -18.050781 C 10.667969 -18.050781 10.550781 -18.050781 10.433594 -17.933594 C 3.632812 -12.777344 -3.867188 -2.8125 -4.21875 -1.289062 C -4.335938 -0.585938 -3.984375 0 -3.28125 0 Z M -3.28125 0 "/></g></g></g><g fill="#a3a5a5" fill-opacity="1"><g transform="translate(273.64469, 110.916802)"><g><path d="M -0.46875 5.625 C 3.398438 5.625 8.441406 1.523438 10.785156 -1.875 L 11.136719 -2.109375 C 14.183594 -3.046875 17.933594 -4.21875 21.921875 -5.390625 C 25.90625 -6.566406 30.125 -7.738281 33.644531 -8.910156 C 33.996094 -9.027344 34.113281 -9.261719 34.113281 -9.613281 C 34.113281 -9.964844 33.878906 -10.199219 33.527344 -10.199219 L 33.292969 -10.199219 C 29.773438 -9.027344 25.554688 -7.855469 21.570312 -6.683594 C 18.285156 -5.742188 15.003906 -4.6875 12.191406 -3.867188 C 12.074219 -3.75 11.957031 -3.867188 11.957031 -4.101562 C 12.074219 -4.335938 12.074219 -4.570312 12.191406 -4.6875 C 12.191406 -5.859375 11.371094 -6.328125 9.964844 -6.328125 C 9.027344 -6.328125 7.855469 -6.09375 6.566406 -5.859375 C 5.273438 -5.625 3.867188 -5.390625 2.8125 -5.390625 C 1.757812 -5.390625 1.40625 -5.625 1.40625 -5.976562 C 1.40625 -8.675781 7.503906 -13.363281 11.019531 -13.363281 C 11.605469 -13.363281 11.722656 -13.128906 11.722656 -12.777344 C 11.722656 -11.957031 10.667969 -10.667969 9.847656 -10.199219 C 9.613281 -10.082031 9.496094 -9.847656 9.496094 -9.613281 C 9.496094 -9.144531 9.847656 -8.910156 10.199219 -8.910156 C 10.316406 -8.910156 10.433594 -8.910156 10.550781 -9.027344 C 11.605469 -9.613281 12.660156 -11.019531 13.011719 -12.425781 C 13.128906 -12.542969 13.128906 -12.777344 13.128906 -12.894531 C 13.128906 -13.949219 12.308594 -14.652344 11.019531 -14.652344 C 6.800781 -14.652344 0 -9.378906 0 -5.976562 C 0 -4.6875 1.054688 -4.101562 2.8125 -4.101562 C 3.984375 -4.101562 5.390625 -4.335938 6.800781 -4.570312 C 7.738281 -4.6875 10.667969 -5.15625 10.785156 -4.804688 C 11.019531 -4.453125 10.550781 -3.867188 10.199219 -3.28125 C 10.199219 -3.164062 10.082031 -3.164062 9.964844 -3.164062 C 5.273438 -1.40625 -2.460938 1.875 -2.460938 4.101562 C -2.460938 5.15625 -1.757812 5.625 -0.46875 5.625 Z M -0.46875 4.21875 C -1.054688 4.21875 -1.171875 4.21875 -1.171875 3.984375 C -1.171875 3.398438 2.929688 1.054688 7.855469 -0.9375 C 8.207031 -0.9375 8.324219 -0.820312 8.089844 -0.585938 C 5.742188 1.875 2.226562 4.21875 -0.46875 4.21875 Z M -0.46875 4.21875 "/></g></g></g><g fill="#a3a5a5" fill-opacity="1"><g transform="translate(304.470756, 110.916802)"><g><path d="M -0.703125 0.9375 C 3.046875 0.9375 6.683594 -5.390625 5.976562 -9.964844 C 5.976562 -10.199219 6.09375 -10.433594 6.328125 -10.199219 C 13.128906 -5.976562 22.15625 -5.507812 28.25 -9.027344 C 28.484375 -9.144531 28.71875 -9.378906 28.71875 -9.613281 C 28.71875 -9.964844 28.367188 -10.199219 28.015625 -10.199219 L 27.664062 -10.199219 C 22.039062 -6.917969 13.832031 -7.386719 7.503906 -11.136719 C 7.269531 -11.253906 7.269531 -11.371094 7.503906 -11.488281 C 7.621094 -11.605469 7.855469 -11.605469 7.972656 -11.722656 C 8.324219 -11.722656 8.441406 -11.957031 8.441406 -12.308594 C 8.441406 -12.660156 8.207031 -13.011719 7.855469 -13.011719 C 7.738281 -13.011719 7.621094 -13.011719 7.621094 -12.894531 C 7.035156 -12.777344 6.449219 -12.542969 5.976562 -12.308594 C 5.742188 -12.191406 5.742188 -12.191406 5.507812 -12.308594 C 5.039062 -12.425781 4.570312 -12.074219 4.335938 -11.605469 C 4.335938 -11.488281 4.21875 -11.488281 4.21875 -11.371094 C 0.117188 -8.910156 -2.929688 -5.039062 -2.929688 -1.757812 C -2.929688 -0.117188 -2.109375 0.9375 -0.703125 0.9375 Z M -0.703125 -0.351562 C -1.289062 -0.351562 -1.640625 -0.820312 -1.640625 -1.757812 C -1.640625 -4.453125 1.054688 -7.855469 4.6875 -10.082031 C 5.273438 -6.328125 2.109375 -0.351562 -0.703125 -0.351562 Z M -0.703125 -0.351562 "/></g></g></g><g fill="#a3a5a5" fill-opacity="1"><g transform="translate(329.787977, 110.916802)"><g><path d="M -3.28125 0 C -2.8125 0 -1.757812 -0.9375 -0.351562 -1.875 C 4.21875 -5.15625 13.480469 -11.957031 17.230469 -11.957031 C 17.699219 -11.957031 17.816406 -11.605469 17.816406 -11.371094 C 17.816406 -10.785156 17.347656 -8.910156 16.878906 -7.269531 C 16.527344 -5.742188 16.175781 -4.21875 16.175781 -3.515625 C 16.175781 -2.109375 17.230469 -1.289062 18.871094 -1.289062 C 23.09375 -1.289062 30.476562 -4.335938 37.628906 -9.027344 C 37.863281 -9.144531 37.980469 -9.378906 37.980469 -9.613281 C 37.980469 -9.964844 37.628906 -10.199219 37.277344 -10.199219 L 36.925781 -10.199219 C 29.890625 -5.507812 22.742188 -2.578125 18.871094 -2.578125 C 17.933594 -2.578125 17.582031 -2.929688 17.582031 -3.515625 C 17.582031 -4.101562 17.816406 -5.390625 18.285156 -6.917969 C 18.636719 -8.675781 19.109375 -10.550781 19.109375 -11.605469 C 19.109375 -12.660156 18.402344 -13.246094 17.230469 -13.246094 C 14.183594 -13.246094 8.675781 -10.082031 -0.585938 -3.398438 C -1.171875 -3.046875 -1.289062 -3.515625 -1.054688 -3.867188 C 1.523438 -7.503906 6.566406 -13.363281 11.253906 -16.878906 C 11.371094 -16.996094 11.488281 -17.230469 11.488281 -17.464844 C 11.488281 -17.816406 11.253906 -18.050781 10.902344 -18.050781 C 10.667969 -18.050781 10.550781 -18.050781 10.433594 -17.933594 C 3.632812 -12.777344 -3.867188 -2.8125 -4.21875 -1.289062 C -4.335938 -0.585938 -3.984375 0 -3.28125 0 Z M -3.28125 0 "/></g></g></g><g fill="#a3a5a5" fill-opacity="1"><g transform="translate(364.347948, 110.916802)"><g/></g></g></svg>